<?xml version="1.0" encoding="utf-8"?>
<!-- Generator: Adobe Illustrator 25.4.1, SVG Export Plug-In . SVG Version: 6.00 Build 0)  -->
<svg version="1.1" id="Layer_1" xmlns="http://www.w3.org/2000/svg" xmlns:xlink="http://www.w3.org/1999/xlink" x="0px" y="0px"
	 viewBox="0 0 961.5 961.5" style="enable-background:new 0 0 961.5 961.5;" xml:space="preserve">
<style type="text/css">
	.st0{stroke:#FFFFFF;stroke-width:4;stroke-miterlimit:10;}
	.st1{fill:#FF0000;stroke:#000000;stroke-width:4;stroke-miterlimit:10;}
	.st2{fill:#FFDF00;stroke:#000000;stroke-width:4;stroke-miterlimit:10;}
	.st3{fill:#FFFFFF;stroke:#000000;stroke-width:4;stroke-miterlimit:10;}
</style>
<rect x="-7.8" y="-7.8" class="st0" width="977" height="977"/>
<path class="st1" d="M907.2,393.6V273.1c0-29.5-7.7-52.8-23-69.9c-15.3-17.1-36.2-25.6-62.6-25.6H542.9v0.3c-2.5-0.2-5-0.3-7.5-0.3
	H420c-17.6,0-32.4,4.2-44.5,12.5c-13-8.3-28.7-12.5-46.9-12.5H49.8v88.1h66.3v445.3H49.8v88.1h282.4c2,0,3.9-0.1,5.8-0.2v0.2h204.7
	h116.6h165.8c54.6,0,81.9-34.3,81.9-102.9V582.8c0-48.3-16.7-79.7-50.1-94.1v-0.5C890.5,475,907.2,443.4,907.2,393.6z M313.7,684.3
	c0,17.8-5.5,26.8-16.6,26.8h-80.2V265.7h78.8c11.9,0,17.9,8.8,17.9,26.3V684.3z M436.2,267.1c0-16.9,6.3-25.4,18.9-25.4h50.4
	c11.7,0,17.6,8.8,17.6,26.3v62.8h86v161.1h-86v61.8c0,18.1-5.4,27.2-16.2,27.2l-53.1-0.5c-11.7,0-17.6-9.2-17.6-27.7V267.1z
	 M542.9,711.1H413.7c0.3-4.7,0.5-9.6,0.5-14.8v-51.1c2.6,0.2,5.2,0.3,7.9,0.3h117.4c33.6,0,56.9-13,69.8-39.1v104.6H542.9z
	 M806.7,684.3c0,17.8-5.5,26.8-16.6,26.8H710V532.9h61.2c23.7,0,35.5,20,35.5,60V684.3z M806.7,388c0,37.5-11.8,56.3-35.5,56.3H710
	V265.7h78.8c11.7,0,17.7,8.8,17.9,26.3V388z"/>
<path class="st2" d="M907.2,382.8V268.4c0-28.1-7.7-50.2-23-66.4c-15.3-16.2-36.2-24.3-62.6-24.3H542.9v0.3c-2.5-0.2-5-0.3-7.5-0.3
	H420c-17.6,0-32.4,4-44.5,11.8c-13-7.9-28.7-11.8-46.9-11.8H49.8v83.7h66.3v423.1H49.8v83.7h282.4c2,0,3.9-0.1,5.8-0.1v0.1h204.7
	h116.6h165.8c54.6,0,81.9-32.6,81.9-97.8V562.6c0-45.9-16.7-75.7-50.1-89.4v-0.4C890.5,460.1,907.2,430.2,907.2,382.8z M313.7,659
	c0,17-5.5,25.4-16.6,25.4h-80.2V261.3h78.8c11.9,0,17.9,8.3,17.9,25V659z M436.2,262.7c0-16.1,6.3-24.1,18.9-24.1h50.4
	c11.7,0,17.6,8.3,17.6,25v59.6h86v153h-86V535c0,17.2-5.4,25.9-16.2,25.9l-53.1-0.4c-11.7,0-17.6-8.8-17.6-26.3V262.7z M542.9,684.5
	H413.7c0.3-4.5,0.5-9.2,0.5-14v-48.5c2.6,0.2,5.2,0.3,7.9,0.3h117.4c33.6,0,56.9-12.4,69.8-37.1v99.4H542.9z M806.7,659
	c0,17-5.5,25.4-16.6,25.4H710V515.2h61.2c23.7,0,35.5,19,35.5,57V659z M806.7,377.5c0,35.7-11.8,53.5-35.5,53.5H710V261.3h78.8
	c11.7,0,17.7,8.3,17.9,25V377.5z"/>
<path class="st3" d="M907.2,371.7V263.4c0-26.5-7.7-47.5-23-62.8c-15.3-15.3-36.2-23-62.6-23H542.9v0.2c-2.5-0.1-5-0.2-7.5-0.2H420
	c-17.6,0-32.4,3.7-44.5,11.2c-13-7.5-28.7-11.2-46.9-11.2H49.8v79.2h66.3V657H49.8v79.2h282.4c2,0,3.9-0.1,5.8-0.1v0.1h204.7h116.6
	h165.8c54.6,0,81.9-30.8,81.9-92.5v-102c0-43.4-16.7-71.6-50.1-84.6v-0.4C890.5,444.8,907.2,416.5,907.2,371.7z M313.7,633
	c0,16-5.5,24.1-16.6,24.1h-80.2V256.8h78.8c11.9,0,17.9,7.9,17.9,23.6V633z M436.2,258.1c0-15.2,6.3-22.8,18.9-22.8h50.4
	c11.7,0,17.6,7.9,17.6,23.6v56.4h86V460h-86v55.6c0,16.3-5.4,24.5-16.2,24.5l-53.1-0.4c-11.7,0-17.6-8.3-17.6-24.9V258.1z
	 M542.9,657H413.7c0.3-4.3,0.5-8.7,0.5-13.3v-45.9c2.6,0.2,5.2,0.3,7.9,0.3h117.4c33.6,0,56.9-11.7,69.8-35.1v94H542.9z M806.7,633
	c0,16-5.5,24.1-16.6,24.1H710V496.9h61.2c23.7,0,35.5,18,35.5,53.9V633z M806.7,366.7c0,33.7-11.8,50.6-35.5,50.6H710V256.8h78.8
	c11.7,0,17.7,7.9,17.9,23.6V366.7z"/>
</svg>
